ffmpeg version 3.4.8-0ubuntu0.2 Copyright (c) 2000-2020 the FFmpeg developers
  built with gcc 7 (Ubuntu 7.5.0-3ubuntu1~18.04)
  configuration: --prefix=/usr --extra-version=0ubuntu0.2 --toolchain=hardened --libdir=/usr/lib/x86_64-linux-gnu --incdir=/usr/include/x86_64-linux-gnu --enable-gpl --disable-stripping --enable-avresample --enable-avisynth --enable-gnutls --enable-ladspa --enable-libass --enable-libbluray --enable-libbs2b --enable-libcaca --enable-libcdio --enable-libflite --enable-libfontconfig --enable-libfreetype --enable-libfribidi --enable-libgme --enable-libgsm --enable-libmp3lame --enable-libmysofa --enable-libopenjpeg --enable-libopenmpt --enable-libopus --enable-libpulse --enable-librubberband --enable-librsvg --enable-libshine --enable-libsnappy --enable-libsoxr --enable-libspeex --enable-libssh --enable-libtheora --enable-libtwolame --enable-libvorbis --enable-libvpx --enable-libwavpack --enable-libwebp --enable-libx265 --enable-libxml2 --enable-libxvid --enable-libzmq --enable-libzvbi --enable-omx --enable-openal --enable-opengl --enable-sdl2 --enable-libdc1394 --enable-libdrm --enable-libiec61883 --enable-chromaprint --enable-frei0r --enable-libopencv --enable-libx264 --enable-shared
  libavutil      55. 78.100 / 55. 78.100
  libavcodec     57.107.100 / 57.107.100
  libavformat    57. 83.100 / 57. 83.100
  libavdevice    57. 10.100 / 57. 10.100
  libavfilter     6.107.100 /  6.107.100
  libavresample   3.  7.  0 /  3.  7.  0
  libswscale      4.  8.100 /  4.  8.100
  libswresample   2.  9.100 /  2.  9.100
  libpostproc    54.  7.100 / 54.  7.100
[rawvideo @ 0x56110e388a20] Estimating duration from bitrate, this may be inaccurate
Input #0, rawvideo, from '../../SVC-Encoder-20220109T061506Z-001/SVC-Encoder/Dataset/RollerCoaster/6f_2x2/tile_yuv/f0_t1_480x480.yuv':
  Duration: 00:00:10.00, start: 0.000000, bitrate: 82944 kb/s
    Stream #0:0: Video: rawvideo (I420 / 0x30323449), yuv420p, 480x480, 82944 kb/s, 30 tbr, 30 tbn, 30 tbc
Stream mapping:
  Stream #0:0 -> #0:0 (rawvideo (native) -> h264 (libx264))
Press [q] to stop, [?] for help
[libx264 @ 0x56110e395c60] using cpu capabilities: MMX2 SSE2Fast LZCNT SSSE3 SSE4.2 AVX
[libx264 @ 0x56110e395c60] profile High, level 3.0
Output #0, rawvideo, to 'RollerCoaster_f0_t1_480x480_x264_QP_40.h264':
  Metadata:
    encoder         : Lavf57.83.100
    Stream #0:0: Video: h264 (libx264), yuv420p, 480x480, q=-1--1, 30 fps, 30 tbn, 30 tbc
    Metadata:
      encoder         : Lavc57.107.100 libx264
    Side data:
      cpb: bitrate max/min/avg: 0/0/0 buffer size: 0 vbv_delay: -1
frame=  300 fps=0.0 q=46.0 LPSNR=Y:inf U:inf V:inf *:inf size=      14kB time=00:00:09.93 bitrate=  11.8kbits/s speed=  26x    
video:14kB audio:0kB subtitle:0kB other streams:0kB global headers:0kB muxing overhead: 0.000000%
[libx264 @ 0x56110e395c60] frame I:2     Avg QP:38.77  size:   832  PSNR Mean Y:39.92 U:45.33 V:45.80 Avg:41.12 Global:41.09
[libx264 @ 0x56110e395c60] frame P:80    Avg QP:41.02  size:    82  PSNR Mean Y:40.45 U:45.59 V:45.48 Avg:41.57 Global:41.51
[libx264 @ 0x56110e395c60] frame B:218   Avg QP:45.50  size:    29  PSNR Mean Y:40.36 U:45.58 V:45.52 Avg:41.50 Global:41.43
[libx264 @ 0x56110e395c60] consecutive B-frames:  1.7%  3.3%  3.0% 92.0%
[libx264 @ 0x56110e395c60] mb I  I16..4:  5.4% 93.7%  0.8%
[libx264 @ 0x56110e395c60] mb P  I16..4:  0.4%  1.7%  0.0%  P16..4:  1.3%  0.2%  0.0%  0.0%  0.0%    skip:96.4%
[libx264 @ 0x56110e395c60] mb B  I16..4:  0.0%  0.0%  0.0%  B16..8:  0.9%  0.0%  0.0%  direct: 0.0%  skip:99.1%  L0:37.2% L1:62.6% BI: 0.2%
[libx264 @ 0x56110e395c60] 8x8 transform intra:87.8% inter:91.3%
[libx264 @ 0x56110e395c60] coded y,uvDC,uvAC intra: 2.2% 5.4% 0.5% inter: 0.0% 0.1% 0.0%
[libx264 @ 0x56110e395c60] i16 v,h,dc,p: 46% 43%  5%  6%
[libx264 @ 0x56110e395c60] i8 v,h,dc,ddl,ddr,vr,hd,vl,hu:  4%  0% 95%  0%  0%  1%  0%  0%  0%
[libx264 @ 0x56110e395c60] i4 v,h,dc,ddl,ddr,vr,hd,vl,hu: 41%  9% 32%  3%  3%  4%  4%  2%  2%
[libx264 @ 0x56110e395c60] i8c dc,h,v,p: 97%  2%  1%  0%
[libx264 @ 0x56110e395c60] Weighted P-Frames: Y:2.5% UV:0.0%
[libx264 @ 0x56110e395c60] ref P L0: 67.8% 11.3% 16.9%  4.0%
[libx264 @ 0x56110e395c60] ref B L0: 87.9% 10.0%  2.1%
[libx264 @ 0x56110e395c60] ref B L1: 92.4%  7.6%
[libx264 @ 0x56110e395c60] PSNR Mean Y:40.381 U:45.583 V:45.514 Avg:41.517 Global:41.450 kb/s:11.74
